#!OML:ASF \\Waltz\H\Terrain\Patient Classification 1\Animal1\Tuesday\Animal1.ASF
:FULLY-SPECIFIED
:DEGREES
2130
root 4.71847 13.8513 -3.0267 71.3197 -80.2603 -31.769
lowerback 41.3081 8.02876 -7.5821
upperback 15.6665 6.12536 16.3667
thorax -5.71969 1.2707 20.0739
lowerneck -13.7459 -0.771719 -13.0943
upperneck -8.22799 0.571593 6.28918
head -0.355023 0.507481 4.05865
rclavicle -1.2762e-013 -1.43939e-013
rhumerus -4.51509 20.2251 -11.5199
rradius 25.1366
rwrist -16.3465
rhand -41.7965 51.1442
rfingers 7.12502
rthumb -14.6991 381.685
lclavicle -1.2762e-013 -1.43939e-013
lhumerus -12.7166 -1.77614 49.3286
lradius 17.6106
lwrist -61.3267
lhand -21.4973 -292.364
lfingers 7.12502
lthumb 4.89417 1342.44
rfemur -92.5948 12.266 21.4859
rtibia 64.8532
rfoot -15.9253 12.9572
rtoes -5.48387
lfemur -75.0244 -3.05774 -10.8912
ltibia 94.6292
lfoot -12.2596 18.4931
ltoes 7.95372
2131
root 4.71068 13.8546 -3.05016 70.2189 -79.9651 -30.6017
lowerback 41.2133 8.03219 -7.8163
upperback 15.6682 6.08554 16.5157
thorax -5.73247 1.25198 20.4369
lowerneck -13.6958 -0.675126 -13.3055
upperneck -8.40919 0.723236 6.29131
head -0.433456 0.592015 4.09929
rclavicle -6.85807e-014 6.33999e-014
rhumerus -4.87925 21.1764 -12.6423
rradius 26.1711
rwrist -18.8386
rhand -41.4018 54.433
rfingers 7.12502
rthumb -14.3188 384.947
lclavicle -6.85807e-014 6.33999e-014
lhumerus -12.9351 -2.40284 50.7691
lradius 17.9761
lwrist -60.9886
lhand -21.7324 -293.158
lfingers 7.12502
lthumb 4.66717 1343.23
rfemur -92.6393 12.3293 21.388
rtibia 64.8737
rfoot -16.2425 11.976
rtoes -8.01924
lfemur -75.1716 -3.33474 -10.5058
ltibia 94.5526
lfoot -12.2158 18.5727
ltoes 8.14903
2132
root 4.69898 13.8585 -3.07391 69.0643 -79.9566 -29.4524
lowerback 41.1556 8.11222 -8.23355
upperback 15.6868 6.05836 16.5514
thorax -5.73175 1.2357 20.7568
lowerneck -13.6221 -0.661485 -13.6246
upperneck -8.60481 0.774915 6.34175
head -0.511148 0.629141 4.16889
rclavicle -5.34731e-014 -5.98963e-014
rhumerus -5.47729 21.6296 -13.9867
rradius 27.3049
rwrist -21.5853
rhand -40.5804 57.2944
rfingers 7.12502
rthumb -13.5273 387.754
lclavicle -5.34731e-014 -5.98963e-014
lhumerus -13.1539 -2.81198 52.1711
lradius 18.3413
lwrist -60.5083
lhand -22.0738 -294.409
lfingers 7.12502
lthumb 4.33753 1344.47
rfemur -92.6929 12.4034 20.9633
rtibia 64.9231
rfoot -15.3413 12.6566
rtoes -1.44563
lfemur -75.0114 -3.51108 -10.4312
ltibia 94.3976
lfoot -12.7799 18.3421
ltoes 10.5067
2133
root 4.68765 13.8644 -3.09926 68.2091 -79.8109 -28.7342
lowerback 41.2199 8.1833 -8.49117
upperback 15.7353 6.05409 16.6049
thorax -5.72982 1.2223 20.9866
lowerneck -13.5481 -0.71445 -13.9223
upperneck -8.70717 0.737244 6.47254
head -0.551117 0.619958 4.25686
rclavicle 2.3059e-014 -6.46299e-014
rhumerus -6.11154 21.9112 -15.5313
rradius 28.2751
rwrist -24.3111
rhand -44.1674 57.1597
rfingers 7.12502
rthumb -16.9824 387.882
lclavicle 2.3059e-014 -6.46299e-014
lhumerus -13.3237 -2.63536 53.6287
lradius 18.5723
lwrist -59.821
lhand -22.3567 -294.839
lfingers 7.12502
lthumb 4.06433 1344.9
rfemur -92.6262 12.4802 20.6468
rtibia 64.9822
rfoot -12.9843 14.6737
rtoes 13.3069
lfemur -74.7006 -3.43579 -10.2732
ltibia 94.2696
lfoot -13.3301 17.825
ltoes 12.0579
2134
root 4.67637 13.8882 -3.12458 68.2596 -79.3748 -28.9738
lowerback 41.3692 8.15999 -8.46408
upperback 15.7321 6.03081 16.6457
thorax -5.77501 1.20817 21.0327
lowerneck -13.5002 -0.66663 -13.9019
upperneck -8.56211 0.800216 6.50958
head -0.52009 0.651627 4.26616
rclavicle 7.99114e-014 1.0771e-013
rhumerus -6.95737 22.6789 -17.4267
rradius 29.0783
rwrist -26.5547
rhand -43.5492 55.6107
rfingers 7.12502
rthumb -16.3872 386.283
lclavicle 7.99114e-014 1.0771e-013
lhumerus -13.7225 -2.04082 55.1581
lradius 18.6812
lwrist -59.2453
lhand -22.9216 -294.481
lfingers 7.12502
lthumb 3.51878 1344.53
rfemur -92.2447 12.5982 20.9749
rtibia 64.9059
rfoot -12.1766 15.1682
rtoes 18.147
lfemur -74.4103 -3.39827 -9.69426
ltibia 94.1176
lfoot -13.4649 17.4853
ltoes 12.3423
2135
root 4.66081 13.8908 -3.14531 68.404 -78.8804 -29.2652
lowerback 41.3968 8.10064 -8.24235
upperback 15.7741 6.02867 16.7075
thorax -5.72879 1.19782 20.9778
lowerneck -13.6982 -0.663489 -14.1444
upperneck -8.27911 0.877504 6.70481
head -0.414248 0.699405 4.36841
rclavicle -2.26615e-014 -5.39002e-014
rhumerus -8.09315 23.1653 -19.4982
rradius 29.7211
rwrist -28.1214
rhand -44.9667 57.4437
rfingers 7.12502
rthumb -17.7516 388.234
lclavicle -2.26615e-014 -5.39002e-014
lhumerus -13.9746 -0.895647 56.9433
lradius 18.7278
lwrist -58.9477
lhand -23.574 -294.117
lfingers 7.12502
lthumb 2.88873 1344.16
rfemur -91.9062 12.6839 21.5985
rtibia 64.8824
rfoot -12.9804 14.3494
rtoes 14.7768
lfemur -74.2773 -3.37102 -9.09578
ltibia 94.0983
lfoot -13.3662 17.3535
ltoes 11.3116
2136
root 4.64659 13.8813 -3.16402 67.4701 -78.3994 -28.4441
lowerback 41.4269 7.91615 -7.98931
upperback 15.7898 5.8879 16.6907
thorax -5.63972 1.1249 20.8747
lowerneck -13.8282 -0.671144 -14.4787
upperneck -8.24215 0.945717 7.09022
head -0.390927 0.747728 4.54645
rclavicle 8.80119e-014 1.13642e-013
rhumerus -9.3067 23.4029 -21.8693
rradius 30.1303
rwrist -28.8222
rhand -44.1995 57.3957
rfingers 7.12502
rthumb -17.0133 388.121
lclavicle 8.80119e-014 1.13642e-013
lhumerus -14.3344 -0.340704 58.8145
lradius 18.9647
lwrist -57.2605
lhand -24.0197 -293.636
lfingers 7.12502
lthumb 2.45833 1343.67
rfemur -91.7365 12.6017 21.9567
rtibia 64.9742
rfoot -13.4322 13.7329
rtoes 13.1793
lfemur -74.1844 -3.55058 -8.59993
ltibia 94.102
lfoot -13.9213 16.9793
ltoes 9.00985
2137
root 4.63409 13.8762 -3.18276 66.0038 -78.0758 -27.0749
lowerback 41.5001 7.85341 -7.95199
upperback 15.5895 5.8727 16.5372
thorax -5.84284 1.16607 20.6566
lowerneck -13.0091 -0.627827 -14.1391
upperneck -8.59733 0.865371 7.38858
head -0.602785 0.697442 4.58088
rclavicle -1.51772e-013 -5.02801e-014
rhumerus -11.5307 24.2587 -24.7966
rradius 30.7574
rwrist -29.2981
rhand -45.2746 55.8319
rfingers 7.12502
rthumb -18.0479 386.649
lclavicle -1.51772e-013 -5.02801e-014
lhumerus -14.9933 -1.33854 60.6245
lradius 19.4972
lwrist -54.3675
lhand -24.3004 -293.255
lfingers 7.12502
lthumb 2.18724 1343.29
rfemur -91.6618 12.4711 22.0075
rtibia 65.1595
rfoot -13.5127 13.4537
rtoes 12.6664
lfemur -74.091 -3.81205 -8.34698
ltibia 94.1004
lfoot -13.4049 17.1963
ltoes 11.3189
2138
root 4.61858 13.8765 -3.20528 64.7097 -77.8625 -25.8722
lowerback 41.5547 7.83939 -7.89768
upperback 15.5279 5.88897 16.4448
thorax -5.90772 1.19274 20.4911
lowerneck -12.8061 -0.713694 -14.372
upperneck -8.6694 0.775254 7.90623
head -0.641233 0.659948 4.77879
rclavicle 4.36332e-014 1.42022e-014
rhumerus -13.7912 25.5354 -27.5377
rradius 31.6024
rwrist -30.2169
rhand -47.4891 53.4926
rfingers 7.12502
rthumb -20.1774 384.521
lclavicle 4.36332e-014 1.42022e-014
lhumerus -15.5481 -2.23023 62.7351
lradius 20.1218
lwrist -51.6506
lhand -23.9813 -292.963
lfingers 7.12502
lthumb 2.49537 1343
rfemur -91.5555 12.3755 22.0479
rtibia 65.3453
rfoot -13.6742 13.105
rtoes 11.41
lfemur -74.0005 -3.99631 -8.20464
ltibia 94.0567
lfoot -13.1058 17.4045
ltoes 10.564
2139
root 4.59955 13.8789 -3.23237 63.2666 -77.7527 -24.5326
lowerback 41.5886 7.85678 -8.00497
upperback 15.5613 5.87003 16.4101
thorax -5.87414 1.18001 20.5195
lowerneck -13.0619 -0.786942 -14.7535
upperneck -8.42414 0.773344 8.21192
head -0.529712 0.673531 4.93714
rclavicle -2.13694e-014 -1.05806e-013
rhumerus -15.7403 26.8364 -30.1419
rradius 32.1629
rwrist -31.1282
rhand -45.4146 51.8321
rfingers 7.12502
rthumb -18.1825 382.662
lclavicle -2.13694e-014 -1.05806e-013
lhumerus -16.2677 -2.86018 65.1452
lradius 20.8847
lwrist -49.1637
lhand -25.5603 -291.113
lfingers 7.12502
lthumb 0.970467 1341.14
rfemur -91.4364 12.3168 21.943
rtibia 65.5325
rfoot -13.9098 12.6889
rtoes 11.6637
lfemur -73.8715 -4.23667 -8.12206
ltibia 93.97
lfoot -12.9065 17.3888
ltoes 8.11256
2140
root 4.58046 13.8782 -3.26578 62.2612 -77.6214 -23.6667
lowerback 41.5586 8.12482 -8.14526
upperback 15.5886 6.15507 16.3611
thorax -5.93959 1.32711 20.3857
lowerneck -13.1327 -0.890011 -14.368
upperneck -8.22428 0.595793 8.2207
head -0.435224 0.572938 4.87064
rclavicle 1.72943e-014 5.41098e-014
rhumerus -18.2211 27.1485 -33.1318
rradius 32.5089
rwrist -32.1389
rhand -41.2768 51.4337
rfingers 7.12502
rthumb -14.1984 381.939
lclavicle 1.72943e-014 5.41098e-014
lhumerus -16.8199 -4.05591 67.4929
lradius 21.6415
lwrist -46.5569
lhand -25.9663 -292.988
lfingers 7.12502
lthumb 0.578268 1343.01
rfemur -91.318 12.4445 21.7953
rtibia 65.713
rfoot -14.0053 12.2617
rtoes 13.0875
lfemur -73.7222 -4.3935 -7.9479
ltibia 93.958
lfoot -12.8132 17.1359
ltoes 6.7544
